<svg xmlns="http://www.w3.org/2000/svg" version="1.1" xmlns:xlink="http://www.w3.org/1999/xlink" xmlns:svgjs="http://svgjs.dev/svgjs" width="1440" height="560" preserveAspectRatio="none" viewBox="0 0 1440 560"><g mask="url(&quot;#SvgjsMask1427&quot;)" fill="none"><rect width="1440" height="560" x="0" y="0" fill="rgba(21, 21, 22, 1)"></rect><path d="M377.788,602.874C422.567,603.817,465.208,582.154,488.377,543.823C512.36,504.144,515.857,453.788,491.891,414.098C468.624,375.566,422.758,362.62,377.788,360.676C328.069,358.527,270.04,360.303,245.219,403.436C220.43,446.514,247.47,497.938,274.983,539.329C298.886,575.288,334.619,601.965,377.788,602.874" fill="rgba(65, 28, 142, 0.71)" class="triangle-float3"></path><path d="M281.85,350.289C328.305,351.092,379.547,339.468,401.047,298.28C421.605,258.897,394.15,215.923,372.129,177.339C349.814,138.241,326.84,91.013,281.85,89.435C235.321,87.803,202.269,129.769,179.893,170.597C158.583,209.48,147.705,255.713,169.587,294.278C191.707,333.263,237.034,349.514,281.85,350.289" fill="rgba(65, 28, 142, 0.71)" class="triangle-float2"></path><path d="M680.098,295.21C734.291,299.254,797.156,300.573,826.805,255.03C858.138,206.9,840.608,143.941,810.355,95.125C781.895,49.203,734.119,17.551,680.098,18.308C627.284,19.048,580.402,51.837,556.015,98.689C533.353,142.228,540.772,194.137,566.977,235.64C591.363,274.262,634.549,291.811,680.098,295.21" fill="rgba(65, 28, 142, 0.71)" class="triangle-float2"></path><path d="M854.167,542.064C881.56,540.77,899.192,516.504,913.085,492.86C927.241,468.769,942.19,440.289,928.171,416.118C914.179,391.993,882.009,389.664,854.167,391.278C829.649,392.699,806.978,403.275,793.668,423.915C779.043,446.594,772.449,474.902,784.749,498.922C798.058,524.913,825,543.442,854.167,542.064" fill="rgba(65, 28, 142, 0.71)" class="triangle-float2"></path><path d="M1208.915,670.19C1257.897,672.261,1310.297,654.18,1332.452,610.445C1353.274,569.342,1326.6,524.369,1302.756,484.942C1280.104,447.487,1252.674,407.22,1208.915,406.172C1163.901,405.094,1128.601,440.771,1106.951,480.252C1086.243,518.016,1081.866,562.765,1102.237,600.712C1123.75,640.786,1163.473,668.269,1208.915,670.19" fill="rgba(65, 28, 142, 0.71)" class="triangle-float1"></path><path d="M1175.337,408.968C1216.748,409.073,1257.216,391.721,1278.558,356.233C1300.531,319.695,1302.459,272.376,1278.82,236.893C1257.143,204.355,1214.401,199.68,1175.337,201.294C1139.751,202.764,1105.347,215.182,1085.675,244.872C1063.661,278.096,1053.91,320.735,1073.021,355.71C1092.781,391.874,1134.127,408.863,1175.337,408.968" fill="rgba(65, 28, 142, 0.71)" class="triangle-float2"></path><path d="M296.402,611.682C332.786,611.543,369.733,597.656,387.324,565.807C404.455,534.791,393.247,498.305,376.171,467.258C358.261,434.695,333.505,402.599,296.402,400.495C256.275,398.22,218.76,422.084,199.257,457.226C180.292,491.398,183.465,533.421,204.272,566.504C223.789,597.536,259.743,611.822,296.402,611.682" fill="rgba(65, 28, 142, 0.71)" class="triangle-float2"></path><path d="M1135.003,84.681C1150.964,83.511,1164.863,75.378,1173.621,61.983C1183.459,46.935,1190.636,28.311,1182.256,12.405C1173.451,-4.307,1153.859,-12.445,1135.003,-11.316C1117.882,-10.291,1105.717,2.985,1096.629,17.531C1086.745,33.35,1075.9,52.272,1085.155,68.467C1094.447,84.727,1116.325,86.05,1135.003,84.681" fill="rgba(65, 28, 142, 0.71)" class="triangle-float3"></path><path d="M1320.834,337.868C1368.58,335.92,1419.193,328.424,1445.037,288.23C1472.735,245.152,1469.644,189.731,1444.92,144.88C1419.271,98.352,1373.918,60.721,1320.834,62.918C1270.436,65.004,1239.484,111.322,1213.35,154.465C1185.772,199.991,1150.829,253.212,1177.742,299.135C1204.521,344.828,1267.916,340.027,1320.834,337.868" fill="rgba(65, 28, 142, 0.71)" class="triangle-float3"></path><path d="M401.59,435.245C423.67,434.796,444.476,424.699,455.965,405.838C467.94,386.179,470.392,361.302,458.714,341.465C447.184,321.88,424.316,313.655,401.59,313.474C378.491,313.29,354.991,320.878,342.87,340.543C330.2,361.099,330.521,387.608,343.246,408.13C355.358,427.665,378.61,435.712,401.59,435.245" fill="rgba(65, 28, 142, 0.71)" class="triangle-float3"></path><path d="M388.586,85.683C407.381,84.499,423.318,74.338,433.907,58.765C446.38,40.421,458.207,17.99,448.004,-1.707C437.278,-22.414,411.887,-29.675,388.586,-28.731C366.994,-27.856,348.092,-15.73,336.962,2.793C325.449,21.953,320.345,46.201,332.162,65.175C343.501,83.382,367.179,87.032,388.586,85.683" fill="rgba(65, 28, 142, 0.71)" class="triangle-float3"></path><path d="M1064.149,433.291C1087.932,433.044,1105.628,413.377,1116.577,392.263C1126.566,373,1127.368,350.545,1116.92,331.527C1106.056,311.751,1086.712,297.053,1064.149,296.825C1041.227,296.593,1020.741,310.465,1009.497,330.441C998.468,350.033,999.253,373.516,1009.803,393.37C1021.107,414.644,1040.059,433.541,1064.149,433.291" fill="rgba(65, 28, 142, 0.71)" class="triangle-float1"></path></g><defs><mask id="SvgjsMask1427"><rect width="1440" height="560" fill="#ffffff"></rect></mask><style>
                @keyframes float1 {
                    0%{transform: translate(0, 0)}
                    50%{transform: translate(-10px, 0)}
                    100%{transform: translate(0, 0)}
                }

                .triangle-float1 {
                    animation: float1 5s infinite;
                }

                @keyframes float2 {
                    0%{transform: translate(0, 0)}
                    50%{transform: translate(-5px, -5px)}
                    100%{transform: translate(0, 0)}
                }

                .triangle-float2 {
                    animation: float2 4s infinite;
                }

                @keyframes float3 {
                    0%{transform: translate(0, 0)}
                    50%{transform: translate(0, -10px)}
                    100%{transform: translate(0, 0)}
                }

                .triangle-float3 {
                    animation: float3 6s infinite;
                }
            </style></defs></svg>