<svg id="visual" viewBox="0 0 960 540" width="960" height="540" xmlns="http://www.w3.org/2000/svg" xmlns:xlink="http://www.w3.org/1999/xlink" version="1.1"><rect x="0" y="0" width="960" height="540" fill="#000000"></rect><defs><linearGradient id="grad1_0" x1="43.8%" y1="0%" x2="100%" y2="100%"><stop offset="14.444444444444446%" stop-color="#000000" stop-opacity="1"></stop><stop offset="85.55555555555554%" stop-color="#000000" stop-opacity="1"></stop></linearGradient></defs><defs><linearGradient id="grad2_0" x1="0%" y1="0%" x2="56.3%" y2="100%"><stop offset="14.444444444444446%" stop-color="#000000" stop-opacity="1"></stop><stop offset="85.55555555555554%" stop-color="#000000" stop-opacity="1"></stop></linearGradient></defs><g transform="translate(960, 0)"><path d="M0 486C-45.9 438.5 -91.9 391.1 -155.4 375.1C-218.9 359.1 -300 374.6 -343.7 343.7C-387.3 312.7 -393.6 235.3 -411.1 170.3C-428.6 105.3 -457.3 52.6 -486 0L0 0Z" fill="#FCAF3C"></path></g><g transform="translate(0, 540)"><path d="M0 -486C45 -437.7 89.9 -389.5 155 -374.2C220 -358.9 305.2 -376.6 343.7 -343.7C382.1 -310.7 373.9 -227.2 389.9 -161.5C405.8 -95.8 445.9 -47.9 486 0L0 0Z" fill="#FCAF3C"></path></g></svg>