<svg xmlns="http://www.w3.org/2000/svg" version="1.1" xmlns:xlink="http://www.w3.org/1999/xlink" xmlns:svgjs="http://svgjs.dev/svgjs" width="1440" height="560" preserveAspectRatio="none" viewBox="0 0 1440 560"><g mask="url(&quot;#SvgjsMask1018&quot;)" fill="none"><rect width="1440" height="560" x="0" y="0" fill="rgba(55, 8, 8, 1)"></rect><path d="M0,535.043C99.289,541.108,177.427,459.033,266.351,414.45C367.563,363.706,500.918,352.546,558.469,255.044C616.46,156.796,597.147,27.012,558.367,-80.281C523.092,-177.876,422.308,-228.626,355.078,-307.677C287.015,-387.708,251.801,-495.177,160.826,-547.723C57.954,-607.14,-72.107,-664.257,-181.31,-617.485C-291.335,-570.361,-290.445,-410.037,-369.816,-320.447C-450.564,-229.303,-625.871,-212.972,-646.067,-92.89C-666.137,26.445,-536.793,116.94,-458.962,209.601C-398.887,281.123,-322.421,329.111,-246.228,383.138C-165.933,440.073,-98.249,529.041,0,535.043" fill="#2c0606"></path><path d="M1440 948.226C1515.008 940.11 1589.529 931.985 1655.26 894.951 1723.691 856.396 1794.598 807.928 1820.575 733.803 1846.028 661.174 1807.963 584.54 1790.292 509.636 1774.228 441.545 1766.767 369.409 1721.936 315.701 1676.708 261.518 1609.9859999999999 231.589 1542.096 212.29399999999998 1474.639 193.122 1403.85 188.048 1336.066 206.03199999999998 1267.136 224.32 1207.109 264.07 1156.724 314.53999999999996 1103.5520000000001 367.802 1051.3980000000001 428.096 1040.095 502.502 1028.76 577.124 1070.954 645.948 1095.542 717.309 1122.974 796.927 1122.616 898.125 1192.564 945.017 1262.495 991.8969999999999 1356.298 957.283 1440 948.226" fill="#420a0a"></path></g><defs><mask id="SvgjsMask1018"><rect width="1440" height="560" fill="#ffffff"></rect></mask></defs></svg>